<?xml version="1.0" ?><svg fill="none" height="24" viewBox="0 0 24 24" width="24" xmlns="http://www.w3.org/2000/svg"><path clip-rule="evenodd" d="M8.37158 7.49026C8.19446 7.80514 7.86127 8 7.5 8H5C4.44772 8 4 8.44772 4 9V17C4 17.5523 4.44772 18 5 18H19C19.5523 18 20 17.5523 20 17V9C20 8.44772 19.5523 8 19 8H16.5C16.2054 8 15.9257 7.87006 15.7357 7.64487L14.6475 6.35513C14.4575 6.12994 14.1778 6 13.8832 6H9.79469C9.43342 6 9.10024 6.19486 8.92312 6.50974L8.37158 7.49026ZM7.5 7L8.05154 6.01948C8.40578 5.38972 9.07215 5 9.79469 5H13.8832C14.4725 5 15.0318 5.25988 15.4118 5.71026L16.5 7H19C20.1046 7 21 7.89543 21 9V17C21 18.1046 20.1046 19 19 19H5C3.89543 19 3 18.1046 3 17V9C3 7.89543 3.89543 7 5 7H7.5Z" fill="#1a73e8" fill-rule="evenodd"/><path clip-rule="evenodd" d="M12 15C13.1046 15 14 14.1046 14 13C14 11.8954 13.1046 11 12 11C10.8954 11 10 11.8954 10 13C10 14.1046 10.8954 15 12 15ZM12 16C13.6569 16 15 14.6569 15 13C15 11.3431 13.6569 10 12 10C10.3431 10 9 11.3431 9 13C9 14.6569 10.3431 16 12 16Z" fill="#1a73e8" fill-rule="evenodd"/><path clip-rule="evenodd" d="M6 11C6.55228 11 7 10.5523 7 10C7 9.44772 6.55228 9 6 9C5.44772 9 5 9.44772 5 10C5 10.5523 5.44772 11 6 11Z" fill="#1a73e8" fill-rule="evenodd"/></svg>