<?xml version="1.0" ?><svg
        fill="white"
        style="background: #1a73e8" enable-background="new 0 0 64 64" version="1.1" viewBox="0 0 64 64" xml:space="preserve" xmlns="http://www.w3.org/2000/svg" xmlns:xlink="http://www.w3.org/1999/xlink"><g id="Layer_1"/><g id="icon"><g><path d="M44.479,55.083c-0.442,0-0.867-0.197-1.161-0.56l-0.064-0.091L32.59,37.784c-0.188-0.294-0.48-0.326-0.597-0.326    s-0.408,0.032-0.597,0.326L20.669,54.523c-0.407,0.502-1.066,0.687-1.672,0.471c-0.61-0.216-1.004-0.773-1.004-1.42V13.375    c0-2.964,2.411-5.375,5.375-5.375h17.25c2.964,0,5.375,2.411,5.375,5.375v40.199c0,0.646-0.394,1.204-1.004,1.42    C44.822,55.054,44.649,55.083,44.479,55.083z M23.368,10c-1.861,0-3.375,1.514-3.375,3.375v38.506l9.72-15.175    c0.5-0.781,1.353-1.248,2.28-1.248s1.78,0.467,2.28,1.248l9.72,15.175V13.375c0-1.861-1.514-3.375-3.375-3.375H23.368z"/></g></g></svg>