<?xml version="1.0" ?>
<svg id="Layer_1" fill="#1a73e8" style="enable-background:new 0 0 64 64;" version="1.1" viewBox="0 0 64 64" xml:space="preserve"
     xmlns="http://www.w3.org/2000/svg" xmlns:xlink="http://www.w3.org/1999/xlink"><style type="text/css">
	.st0{fill:white;stroke:white;stroke-width:2;stroke-linejoin:round;stroke-miterlimit:10;}
</style>
    <path d="M26.5,25c0-2.206-1.794-4-4-4s-4,1.794-4,4s1.794,4,4,4S26.5,27.206,26.5,25z M20.5,25c0-1.103,0.897-2,2-2s2,0.897,2,2  s-0.897,2-2,2S20.5,26.103,20.5,25z"/>
    <path d="M41.5,29c2.206,0,4-1.794,4-4s-1.794-4-4-4s-4,1.794-4,4S39.294,29,41.5,29z M41.5,23c1.103,0,2,0.897,2,2s-0.897,2-2,2  s-2-0.897-2-2S40.397,23,41.5,23z"/>
    <path d="M32,4C16.561,4,4,16.561,4,32s12.561,28,28,28s28-12.561,28-28S47.439,4,32,4z M32,58C17.664,58,6,46.336,6,32  S17.664,6,32,6s26,11.664,26,26S46.336,58,32,58z"/>
    <path d="M32,39c-1.126,0-11,0.14-11,5h2c0-2.042,5.371-2.998,9-3c3.63,0.002,9,0.958,9,3h2C43,39.14,33.126,39,32,39z"/>
    <path d="M46.4,28c-2.462,0-3.4,5.621-3.4,6.6c0,1.875,1.525,3.4,3.4,3.4s3.4-1.525,3.4-3.4C49.8,33.621,48.862,28,46.4,28z M46.4,36  c-0.772,0-1.4-0.628-1.4-1.4c0-1.159,0.803-3.842,1.4-4.51c0.597,0.668,1.4,3.351,1.4,4.51C47.8,35.372,47.172,36,46.4,36z"/></svg>